<mxfile host="app.diagrams.net" modified="2024-03-27T06:08:37.973Z" agent="Mozilla/5.0 (Macintosh; Intel Mac OS X 10_15_7) AppleWebKit/537.36 (KHTML, like Gecko) Chrome/123.0.0.0 Safari/537.36" etag="BA9j0sPz-hvMAjfuhSVM" version="24.1.0" type="device">
  <diagram name="페이지-1" id="2dxeEr3kYc92nHnrPnUk">
    <mxGraphModel dx="1421" dy="752" grid="1" gridSize="10" guides="1" tooltips="1" connect="1" arrows="1" fold="1" page="1" pageScale="1" pageWidth="1169" pageHeight="827" math="0" shadow="0">
      <root>
        <mxCell id="0" />
        <mxCell id="1" parent="0" />
        <mxCell id="AdlpqdxM5Ocv0Wm_ZBDm-18" style="edgeStyle=orthogonalEdgeStyle;rounded=0;orthogonalLoop=1;jettySize=auto;html=1;exitX=1;exitY=0.5;exitDx=0;exitDy=0;" edge="1" parent="1" source="AdlpqdxM5Ocv0Wm_ZBDm-1" target="AdlpqdxM5Ocv0Wm_ZBDm-3">
          <mxGeometry relative="1" as="geometry" />
        </mxCell>
        <mxCell id="AdlpqdxM5Ocv0Wm_ZBDm-1" value="Console" style="rounded=1;whiteSpace=wrap;html=1;" vertex="1" parent="1">
          <mxGeometry x="200" y="470" width="120" height="60" as="geometry" />
        </mxCell>
        <mxCell id="AdlpqdxM5Ocv0Wm_ZBDm-2" value="Terminal" style="rounded=1;whiteSpace=wrap;html=1;" vertex="1" parent="1">
          <mxGeometry x="840" y="470" width="120" height="60" as="geometry" />
        </mxCell>
        <mxCell id="AdlpqdxM5Ocv0Wm_ZBDm-3" value="Socket Out" style="rounded=1;whiteSpace=wrap;html=1;" vertex="1" parent="1">
          <mxGeometry x="360" y="470" width="120" height="60" as="geometry" />
        </mxCell>
        <mxCell id="AdlpqdxM5Ocv0Wm_ZBDm-20" style="edgeStyle=orthogonalEdgeStyle;rounded=0;orthogonalLoop=1;jettySize=auto;html=1;exitX=1;exitY=0.5;exitDx=0;exitDy=0;entryX=0;entryY=0.5;entryDx=0;entryDy=0;" edge="1" parent="1" source="AdlpqdxM5Ocv0Wm_ZBDm-4" target="AdlpqdxM5Ocv0Wm_ZBDm-2">
          <mxGeometry relative="1" as="geometry" />
        </mxCell>
        <mxCell id="AdlpqdxM5Ocv0Wm_ZBDm-4" value="Socket In" style="rounded=1;whiteSpace=wrap;html=1;" vertex="1" parent="1">
          <mxGeometry x="680" y="470" width="120" height="60" as="geometry" />
        </mxCell>
        <mxCell id="AdlpqdxM5Ocv0Wm_ZBDm-19" style="edgeStyle=orthogonalEdgeStyle;rounded=0;orthogonalLoop=1;jettySize=auto;html=1;exitX=0.75;exitY=1;exitDx=0;exitDy=0;entryX=0;entryY=0.5;entryDx=0;entryDy=0;" edge="1" parent="1" source="AdlpqdxM5Ocv0Wm_ZBDm-5" target="AdlpqdxM5Ocv0Wm_ZBDm-4">
          <mxGeometry relative="1" as="geometry" />
        </mxCell>
        <mxCell id="AdlpqdxM5Ocv0Wm_ZBDm-5" value="Socket" style="rounded=1;whiteSpace=wrap;html=1;dashed=1;" vertex="1" parent="1">
          <mxGeometry x="520" y="360" width="120" height="60" as="geometry" />
        </mxCell>
        <mxCell id="AdlpqdxM5Ocv0Wm_ZBDm-6" value="Server Socket" style="rounded=1;whiteSpace=wrap;html=1;dashed=1;" vertex="1" parent="1">
          <mxGeometry x="520" y="240" width="120" height="60" as="geometry" />
        </mxCell>
        <mxCell id="AdlpqdxM5Ocv0Wm_ZBDm-8" value="Socket Out" style="rounded=1;whiteSpace=wrap;html=1;" vertex="1" parent="1">
          <mxGeometry x="360" y="150" width="120" height="60" as="geometry" />
        </mxCell>
        <mxCell id="AdlpqdxM5Ocv0Wm_ZBDm-22" style="edgeStyle=orthogonalEdgeStyle;rounded=0;orthogonalLoop=1;jettySize=auto;html=1;exitX=1;exitY=0.5;exitDx=0;exitDy=0;entryX=1;entryY=0.5;entryDx=0;entryDy=0;" edge="1" parent="1" source="AdlpqdxM5Ocv0Wm_ZBDm-9" target="AdlpqdxM5Ocv0Wm_ZBDm-10">
          <mxGeometry relative="1" as="geometry">
            <Array as="points">
              <mxPoint x="840" y="180" />
              <mxPoint x="840" y="80" />
            </Array>
          </mxGeometry>
        </mxCell>
        <mxCell id="AdlpqdxM5Ocv0Wm_ZBDm-9" value="Socket In" style="rounded=1;whiteSpace=wrap;html=1;" vertex="1" parent="1">
          <mxGeometry x="680" y="150" width="120" height="60" as="geometry" />
        </mxCell>
        <mxCell id="AdlpqdxM5Ocv0Wm_ZBDm-10" value="Echo Server" style="rounded=1;whiteSpace=wrap;html=1;" vertex="1" parent="1">
          <mxGeometry x="520" y="50" width="120" height="60" as="geometry" />
        </mxCell>
        <mxCell id="AdlpqdxM5Ocv0Wm_ZBDm-12" value="" style="endArrow=classic;startArrow=classic;html=1;rounded=0;exitX=0.5;exitY=0;exitDx=0;exitDy=0;entryX=0.5;entryY=1;entryDx=0;entryDy=0;" edge="1" parent="1" source="AdlpqdxM5Ocv0Wm_ZBDm-5" target="AdlpqdxM5Ocv0Wm_ZBDm-6">
          <mxGeometry width="50" height="50" relative="1" as="geometry">
            <mxPoint x="560" y="320" as="sourcePoint" />
            <mxPoint x="610" y="270" as="targetPoint" />
          </mxGeometry>
        </mxCell>
        <mxCell id="AdlpqdxM5Ocv0Wm_ZBDm-13" value="" style="endArrow=classic;html=1;rounded=0;exitX=1;exitY=0.5;exitDx=0;exitDy=0;" edge="1" parent="1" source="AdlpqdxM5Ocv0Wm_ZBDm-8">
          <mxGeometry width="50" height="50" relative="1" as="geometry">
            <mxPoint x="530" y="190" as="sourcePoint" />
            <mxPoint x="550" y="240" as="targetPoint" />
            <Array as="points">
              <mxPoint x="550" y="180" />
            </Array>
          </mxGeometry>
        </mxCell>
        <mxCell id="AdlpqdxM5Ocv0Wm_ZBDm-14" value="" style="endArrow=classic;html=1;rounded=0;entryX=0;entryY=0.5;entryDx=0;entryDy=0;" edge="1" parent="1" target="AdlpqdxM5Ocv0Wm_ZBDm-9">
          <mxGeometry width="50" height="50" relative="1" as="geometry">
            <mxPoint x="610" y="240" as="sourcePoint" />
            <mxPoint x="650" y="170" as="targetPoint" />
            <Array as="points">
              <mxPoint x="610" y="180" />
            </Array>
          </mxGeometry>
        </mxCell>
        <mxCell id="AdlpqdxM5Ocv0Wm_ZBDm-16" value="" style="endArrow=classic;html=1;rounded=0;entryX=0;entryY=0.5;entryDx=0;entryDy=0;exitX=0;exitY=0.5;exitDx=0;exitDy=0;" edge="1" parent="1" source="AdlpqdxM5Ocv0Wm_ZBDm-10" target="AdlpqdxM5Ocv0Wm_ZBDm-8">
          <mxGeometry width="50" height="50" relative="1" as="geometry">
            <mxPoint x="280" y="179.66" as="sourcePoint" />
            <mxPoint x="320" y="179.66" as="targetPoint" />
            <Array as="points">
              <mxPoint x="320" y="80" />
              <mxPoint x="320" y="180" />
            </Array>
          </mxGeometry>
        </mxCell>
        <mxCell id="AdlpqdxM5Ocv0Wm_ZBDm-17" value="" style="endArrow=classic;html=1;rounded=0;exitX=1;exitY=0.5;exitDx=0;exitDy=0;entryX=0.25;entryY=1;entryDx=0;entryDy=0;" edge="1" parent="1" source="AdlpqdxM5Ocv0Wm_ZBDm-3" target="AdlpqdxM5Ocv0Wm_ZBDm-5">
          <mxGeometry width="50" height="50" relative="1" as="geometry">
            <mxPoint x="530" y="530" as="sourcePoint" />
            <mxPoint x="580" y="480" as="targetPoint" />
            <Array as="points">
              <mxPoint x="550" y="500" />
            </Array>
          </mxGeometry>
        </mxCell>
      </root>
    </mxGraphModel>
  </diagram>
</mxfile>
